<?xml version="1.0" encoding="utf-8"?>
<!-- Generator: Adobe Illustrator 26.0.2, SVG Export Plug-In . SVG Version: 6.00 Build 0)  -->
<svg version="1.1" id="Layer_1" xmlns="http://www.w3.org/2000/svg" xmlns:xlink="http://www.w3.org/1999/xlink" x="0px" y="0px"
	 viewBox="0 0 200 200" style="enable-background:new 0 0 200 200;" xml:space="preserve">
<style type="text/css">
	.st0{fill:#0288D1;}
	.st1{fill:#FFFFFF;}
</style>
<g>
	<rect id="svg_2" class="st0" width="200" height="200"/>
	<path id="svg_1" class="st1" d="M143.8,150.8H56.2v-10.2C56.2,126,85.4,118,100,118s43.8,8,43.8,22.6 M100,63.3
		c12.1,0,21.9,9.8,21.9,21.9v0c0,12.1-9.8,21.9-21.9,21.9s-21.9-9.8-21.9-21.9S87.9,63.3,100,63.3 M100,34.2c4,0,7.3,3.3,7.3,7.3
		s-3.3,7.3-7.3,7.3s-7.3-3.3-7.3-7.3S96,34.2,100,34.2 M151,34.2h-30.5c-3.1-8.5-11.1-14.6-20.6-14.6s-17.5,6.1-20.6,14.6H49
		c-8.1,0-14.6,6.5-14.6,14.6l0,0v102.1c0,8.1,6.5,14.6,14.6,14.6c0,0,0,0,0,0H151c8.1,0,14.6-6.5,14.6-14.6c0,0,0,0,0,0V48.7
		C165.6,40.7,159.1,34.2,151,34.2L151,34.2L151,34.2z"/>
</g>
</svg>
