<svg height="200" version="1.1" width="200" xmlns="http://www.w3.org/2000/svg">
    <g>
        <rect fill="#0288d1" height="200" id="svg_2" stroke="null" stroke-width="0" width="200"
            x="0" y="0" />
        <path
            d="m143.75551,156.84068l-87.51101,0l0,-10.20962c0,-14.58517 29.17034,-22.60701 43.75551,-22.60701c14.58517,0 43.75551,8.02184 43.75551,22.60701m-43.75551,-77.3014a21.87775,21.87775 0 0 1 21.87775,21.87775a21.87775,21.87775 0 0 1 -21.87775,21.87775a21.87775,21.87775 0 0 1 -21.87775,-21.87775a21.87775,21.87775 0 0 1 21.87775,-21.87775m0,-29.17034a7.29258,7.29258 0 0 1 7.29258,7.29258a7.29258,7.29258 0 0 1 -7.29258,7.29258a7.29258,7.29258 0 0 1 -7.29258,-7.29258a7.29258,7.29258 0 0 1 7.29258,-7.29258m51.04809,0l-30.483,0c-3.06289,-8.4594 -11.08473,-14.58517 -20.56509,-14.58517c-9.48036,0 -17.5022,6.12577 -20.56509,14.58517l-30.483,0a14.58517,14.58517 0 0 0 -14.58517,14.58517l0,102.09618a14.58517,14.58517 0 0 0 14.58517,14.58517l102.09618,0a14.58517,14.58517 0 0 0 14.58517,-14.58517l0,-102.09618a14.58517,14.58517 0 0 0 -14.58517,-14.58517z"
            fill="#FFFFFF" id="svg_1" stroke="null" />
    </g>
</svg>
